<svg xmlns="http://www.w3.org/2000/svg" viewBox="0 0 449.02 67.09"><g id="Layer_2" data-name="Layer 2"><g id="Layer_2-2" data-name="Layer 2"><path d="M41.76,10.88a4,4,0,0,1,3.06,1.27A4.54,4.54,0,0,1,46,15.33V41.76A21.74,21.74,0,0,1,43.4,52.49a18.86,18.86,0,0,1-7.12,7.3,20.58,20.58,0,0,1-10.51,2.63,20.78,20.78,0,0,1-10.55-2.63,18.72,18.72,0,0,1-7.15-7.3A21.74,21.74,0,0,1,5.48,41.76V15.33a4.25,4.25,0,0,1,1.31-3.18,4.62,4.62,0,0,1,3.36-1.27,4.3,4.3,0,0,1,3,1.27,4.21,4.21,0,0,1,1.35,3.18V41.76a12.18,12.18,0,0,0,1.57,6.31,11.24,11.24,0,0,0,9.67,5.59,12,12,0,0,0,5.84-1.47,11.43,11.43,0,0,0,6.06-10.43V15.33a4.72,4.72,0,0,1,1.09-3.18A3.74,3.74,0,0,1,41.76,10.88Z" transform="translate(-5.48 -9.56)"/><path d="M77.09,22.26q5.4,0,8.21,2.27a11.54,11.54,0,0,1,3.87,6,31,31,0,0,1,1.06,8.36V57.6A4.4,4.4,0,0,1,89,60.77a4.49,4.49,0,0,1-6.28,0,4.36,4.36,0,0,1-1.24-3.17V38.91a14.26,14.26,0,0,0-.62-4.34,6.07,6.07,0,0,0-2.23-3.11A7.72,7.72,0,0,0,74,30.29a9.65,9.65,0,0,0-4.93,1.17A8,8,0,0,0,66,34.57,8.83,8.83,0,0,0,65,38.91V57.6a4.36,4.36,0,0,1-1.24,3.17,4.49,4.49,0,0,1-6.28,0,4.36,4.36,0,0,1-1.24-3.17V27.45a4.37,4.37,0,0,1,1.24-3.18,4.52,4.52,0,0,1,6.28,0A4.37,4.37,0,0,1,65,27.45v3.14l-1.1-.22a14.39,14.39,0,0,1,1.9-2.67A18.35,18.35,0,0,1,68.69,25a14.79,14.79,0,0,1,3.8-2A13.42,13.42,0,0,1,77.09,22.26Z" transform="translate(-5.48 -9.56)"/><path d="M103.51,18.25a5.83,5.83,0,0,1-3.5-.8,3.45,3.45,0,0,1-1-2.85V13.21a3.22,3.22,0,0,1,1.13-2.88,6.26,6.26,0,0,1,3.47-.77,5.9,5.9,0,0,1,3.57.81,3.41,3.41,0,0,1,1,2.84V14.6a3.29,3.29,0,0,1-1.09,2.88A6.4,6.4,0,0,1,103.51,18.25ZM108,57.6a4.37,4.37,0,0,1-1.25,3.17,4.48,4.48,0,0,1-6.27,0,4.36,4.36,0,0,1-1.24-3.17V27.45a4.37,4.37,0,0,1,1.24-3.18,4.5,4.5,0,0,1,6.27,0A4.37,4.37,0,0,1,108,27.45Z" transform="translate(-5.48 -9.56)"/><path d="M114.68,56a4.12,4.12,0,0,1-.66-2.63,3.52,3.52,0,0,1,1.9-2.77A4,4,0,0,1,118.4,50,4.12,4.12,0,0,1,121,51.32a17,17,0,0,0,4.45,3.28,13,13,0,0,0,5.84,1.17,20,20,0,0,0,2.41-.33,4.67,4.67,0,0,0,2.3-1.16,3.66,3.66,0,0,0,1-2.82,3.2,3.2,0,0,0-1.1-2.55A9.33,9.33,0,0,0,133,47.3c-1.2-.43-2.52-.85-4-1.24s-3.06-.92-4.64-1.46A19.12,19.12,0,0,1,120,42.52a9.94,9.94,0,0,1-3.21-3.39,10.38,10.38,0,0,1-1.24-5.33,9.67,9.67,0,0,1,2-6.21,13.44,13.44,0,0,1,5.29-3.94,17.31,17.31,0,0,1,6.83-1.39,22.27,22.27,0,0,1,4.74.55,18.84,18.84,0,0,1,4.75,1.75A11.82,11.82,0,0,1,143,27.74a5.09,5.09,0,0,1,.95,2.63,3.12,3.12,0,0,1-1.38,2.77,3.53,3.53,0,0,1-2.56.77,3.87,3.87,0,0,1-2.41-1,8.59,8.59,0,0,0-3.32-2.55,11.46,11.46,0,0,0-4.78-.95,12.11,12.11,0,0,0-2.37.25,4.74,4.74,0,0,0-2.23,1.1,3.39,3.39,0,0,0-1,2.66,3.42,3.42,0,0,0,1.1,2.67,8.31,8.31,0,0,0,3,1.6c1.24.42,2.57.82,4,1.21s3,.85,4.46,1.39a17.88,17.88,0,0,1,4.16,2.11,10.12,10.12,0,0,1,3.06,3.4,10.68,10.68,0,0,1,1.17,5.29,9.59,9.59,0,0,1-2.19,6.35,13.9,13.9,0,0,1-5.48,4,17.44,17.44,0,0,1-6.71,1.35,26.12,26.12,0,0,1-8.62-1.5A14.87,14.87,0,0,1,114.68,56Z" transform="translate(-5.48 -9.56)"/><path d="M197.1,23A3.94,3.94,0,0,1,200,24.27a4.51,4.51,0,0,1,1.24,3.25,6,6,0,0,1-.07.91,4.58,4.58,0,0,1-.22.77L189.8,59.28A4,4,0,0,1,188,61.5a4.11,4.11,0,0,1-2.77.55,4.26,4.26,0,0,1-3.72-2.77l-7.23-20.81,1.9.07-6.79,20.74a4.29,4.29,0,0,1-3.73,2.77,4.09,4.09,0,0,1-2.73-.55A4,4,0,0,1,161,59.28L149.87,29.2a4.82,4.82,0,0,1,.87-4.82A4,4,0,0,1,154,23a4.72,4.72,0,0,1,2.49.65A3.53,3.53,0,0,1,158,25.77l8.83,23.94L165,49.57l6.64-18a4.09,4.09,0,0,1,4-2.71,3.75,3.75,0,0,1,2.44.7,4.74,4.74,0,0,1,1.35,2l6.64,18-2.19.29,9-24.09Q193.74,23,197.1,23Z" transform="translate(-5.48 -9.56)"/><path d="M240.09,22.26a4.25,4.25,0,0,1,3.14,1.25,4.31,4.31,0,0,1,1.24,3.21V57.6a4.36,4.36,0,0,1-1.24,3.17,4.49,4.49,0,0,1-6.28,0,4.4,4.4,0,0,1-1.24-3.17V54l1.61.66a4.12,4.12,0,0,1-1,2.3,14,14,0,0,1-2.78,2.66,16.78,16.78,0,0,1-4.12,2.23,14.19,14.19,0,0,1-5.15.91,16.66,16.66,0,0,1-9.12-2.59A18.16,18.16,0,0,1,208.67,53a22.38,22.38,0,0,1-2.38-10.47A22.57,22.57,0,0,1,208.67,32a18.34,18.34,0,0,1,6.39-7.15,16,16,0,0,1,8.9-2.6,17,17,0,0,1,5.77.95,17.57,17.57,0,0,1,4.56,2.41,13.75,13.75,0,0,1,3,3,4.69,4.69,0,0,1,1.06,2.52l-2.63.95V26.72A4.41,4.41,0,0,1,237,23.54,4.21,4.21,0,0,1,240.09,22.26ZM225.35,54.75A9.91,9.91,0,0,0,231,53.14a10.88,10.88,0,0,0,3.76-4.38,13.93,13.93,0,0,0,1.35-6.2,14.16,14.16,0,0,0-1.35-6.28A10.88,10.88,0,0,0,231,31.9a9.91,9.91,0,0,0-5.62-1.61,9.78,9.78,0,0,0-5.55,1.61A10.8,10.8,0,0,0,216,36.28a14.16,14.16,0,0,0-1.35,6.28,13.93,13.93,0,0,0,1.35,6.2,10.8,10.8,0,0,0,3.76,4.38A9.78,9.78,0,0,0,225.35,54.75Z" transform="translate(-5.48 -9.56)"/><path d="M274.18,22.26a16.67,16.67,0,0,1,9.17,2.6A18.35,18.35,0,0,1,289.77,32a22.38,22.38,0,0,1,2.37,10.52A22.52,22.52,0,0,1,289.77,53a18.52,18.52,0,0,1-6.35,7.16,16,16,0,0,1-8.94,2.59,15.66,15.66,0,0,1-5.48-1,17.31,17.31,0,0,1-4.49-2.41,13.54,13.54,0,0,1-3-3A4.63,4.63,0,0,1,260.46,54l2.26-1V72.2a4.36,4.36,0,0,1-1.24,3.17,4.2,4.2,0,0,1-3.14,1.28,4.26,4.26,0,0,1-3.14-1.24A4.38,4.38,0,0,1,254,72.2V27.45a4.41,4.41,0,0,1,1.24-3.18,4.52,4.52,0,0,1,6.28,0,4.37,4.37,0,0,1,1.24,3.18V31l-1.24-.65a4.12,4.12,0,0,1,1-2.3,14.66,14.66,0,0,1,2.78-2.7,15.6,15.6,0,0,1,4.05-2.23A13.59,13.59,0,0,1,274.18,22.26Zm-1.09,8a9.89,9.89,0,0,0-5.62,1.61,10.89,10.89,0,0,0-3.76,4.34,14,14,0,0,0-1.35,6.25,14.26,14.26,0,0,0,1.35,6.24,10.76,10.76,0,0,0,3.76,4.41,9.89,9.89,0,0,0,5.62,1.61,9.71,9.71,0,0,0,5.58-1.61,11,11,0,0,0,3.73-4.41,14.26,14.26,0,0,0,1.35-6.24,14,14,0,0,0-1.35-6.25,11.13,11.13,0,0,0-3.73-4.34A9.71,9.71,0,0,0,273.09,30.29Z" transform="translate(-5.48 -9.56)"/><path d="M325.87,62.05a5.7,5.7,0,0,1-3.65-1.28,3.91,3.91,0,0,1-1.61-3.17V15.4A4.37,4.37,0,0,1,325.06,11h21a13.48,13.48,0,0,1,7.11,2,15.27,15.27,0,0,1,5.37,5.54,16.05,16.05,0,0,1,2,8.14,13.46,13.46,0,0,1-1.13,5.41,16.75,16.75,0,0,1-3.06,4.74,14.38,14.38,0,0,1-4.35,3.29l.08-1.68a12.18,12.18,0,0,1,5.51,5.8,11.05,11.05,0,0,1,.91,3.69c.19,1.21.33,2.29.4,3.21a9.47,9.47,0,0,0,.44,2.34,2.57,2.57,0,0,0,1.28,1.46,4.06,4.06,0,0,1,2,2.73,3.4,3.4,0,0,1-.84,3.18,3.51,3.51,0,0,1-2,1.2,6.09,6.09,0,0,1-2.48,0,7.35,7.35,0,0,1-2-.69,10.38,10.38,0,0,1-2.49-2.15,10.82,10.82,0,0,1-2-3.84,20.53,20.53,0,0,1-.77-6.2,6,6,0,0,0-.44-2.3,5,5,0,0,0-3.28-3,9.44,9.44,0,0,0-2.92-.41H328.64l1.09-1.67V57.6a4.92,4.92,0,0,1-1,3.17A3.44,3.44,0,0,1,325.87,62.05Zm2.84-26.13h17a3.71,3.71,0,0,0,2.56-1.21,9.07,9.07,0,0,0,2-3.28,12.5,12.5,0,0,0,.8-4.57,8.33,8.33,0,0,0-1.71-5.36,4.78,4.78,0,0,0-3.69-2.16H328.86l.87-2.33V37.67Z" transform="translate(-5.48 -9.56)"/><path d="M387.19,62.78A30.81,30.81,0,0,1,378,61.5,21.82,21.82,0,0,1,370.18,57a5.59,5.59,0,0,1-1.46-1.82,4.54,4.54,0,0,1-.51-2,4.17,4.17,0,0,1,1.2-3,4,4,0,0,1,3-1.28,3.84,3.84,0,0,1,2.48.88,23.64,23.64,0,0,0,5.51,3.43,17.26,17.26,0,0,0,6.76,1.16,13.92,13.92,0,0,0,5-.84,9.54,9.54,0,0,0,3.65-2.26A4.55,4.55,0,0,0,397.19,48a5.5,5.5,0,0,0-1.32-3.72,10,10,0,0,0-4-2.59A30.73,30.73,0,0,0,385,40.08a30.9,30.9,0,0,1-6.94-1.79,16.15,16.15,0,0,1-5-3.07,12.07,12.07,0,0,1-3-4.38,14.94,14.94,0,0,1-1-5.66,13.33,13.33,0,0,1,2.45-8.1,15.32,15.32,0,0,1,6.6-5.11,23.46,23.46,0,0,1,9.2-1.75,26.41,26.41,0,0,1,8.8,1.42,20.45,20.45,0,0,1,6.6,3.62,4.88,4.88,0,0,1,2.12,3.87,4.15,4.15,0,0,1-1.24,2.92,3.91,3.91,0,0,1-2.92,1.31,3.18,3.18,0,0,1-2-.66,13.4,13.4,0,0,0-3.14-1.93,27.79,27.79,0,0,0-4.16-1.53,14.84,14.84,0,0,0-4.09-.62,15.11,15.11,0,0,0-5.29.8,7.13,7.13,0,0,0-3.25,2.19,5,5,0,0,0-1.1,3.21,5.21,5.21,0,0,0,1.28,3.61,8.65,8.65,0,0,0,3.69,2.27,42.89,42.89,0,0,0,5.76,1.49,59.57,59.57,0,0,1,7.71,1.9,18.13,18.13,0,0,1,5.51,2.81,10.6,10.6,0,0,1,3.28,4.31,16.2,16.2,0,0,1,1.1,6.31,13.07,13.07,0,0,1-2.63,8.18,16.81,16.81,0,0,1-6.9,5.26A23.35,23.35,0,0,1,387.19,62.78Z" transform="translate(-5.48 -9.56)"/><path d="M418.87,62.05a4.31,4.31,0,0,1-4.53-4.45V15.4a4.26,4.26,0,0,1,1.31-3.17A4.64,4.64,0,0,1,419,11a4.26,4.26,0,0,1,3.25,1.28,4.46,4.46,0,0,1,1.21,3.17V57.6a4.4,4.4,0,0,1-1.24,3.17A4.48,4.48,0,0,1,418.87,62.05ZM450.4,10.58A3.55,3.55,0,0,1,453.29,12a4.64,4.64,0,0,1,1.13,2.88,4,4,0,0,1-1.32,2.85L422.52,47l-.37-10.44,24.68-24.31A5,5,0,0,1,450.4,10.58Zm-.87,51.47a3.89,3.89,0,0,1-3.29-1.68L429.38,38.18,436,31.39l17.45,23.07a4.94,4.94,0,0,1,1,3A4.12,4.12,0,0,1,453,60.77,5.24,5.24,0,0,1,449.53,62.05Z" transform="translate(-5.48 -9.56)"/></g></g></svg>