<svg id="Layer_1" data-name="Layer 1" xmlns="http://www.w3.org/2000/svg" xmlns:xlink="http://www.w3.org/1999/xlink" viewBox="0 0 64 59.54"><defs><style>.cls-1{fill:#0d7208;stroke:#231f20;stroke-linecap:round;stroke-miterlimit:10;stroke-width:0.11px;}.cls-2{fill:url(#linear-gradient);}.cls-3{fill:url(#linear-gradient-2);}.cls-4{fill:url(#linear-gradient-3);}.cls-5{fill:url(#linear-gradient-4);}.cls-6{fill:url(#radial-gradient);}</style><linearGradient id="linear-gradient" x1="21.94" y1="-3.77" x2="67.56" y2="55.17" gradientUnits="userSpaceOnUse"><stop offset="0" stop-color="#056f3c"/><stop offset="0.36"/><stop offset="0.42" stop-color="#112017"/><stop offset="0.53" stop-color="#2a503a"/><stop offset="0.63" stop-color="#3f7857"/><stop offset="0.73" stop-color="#4f986d"/><stop offset="0.83" stop-color="#5bae7d"/><stop offset="0.92" stop-color="#62bb87"/><stop offset="1" stop-color="#64c08a"/></linearGradient><linearGradient id="linear-gradient-2" y1="1.72" x2="33.26" y2="1.72" gradientUnits="userSpaceOnUse"><stop offset="0" stop-color="#056f3c"/><stop offset="0.5" stop-color="#00a550"/><stop offset="1" stop-color="#64c08a"/></linearGradient><linearGradient id="linear-gradient-3" x1="21.57" y1="47.12" x2="19.98" y2="17.43" gradientUnits="userSpaceOnUse"><stop offset="0" stop-color="#64c08a"/><stop offset="0.5" stop-color="#00a550"/><stop offset="1" stop-color="#7ebc48"/></linearGradient><linearGradient id="linear-gradient-4" x1="0" y1="29.47" x2="33.26" y2="29.47" xlink:href="#linear-gradient-2"/><radialGradient id="radial-gradient" cx="1087.01" cy="-3992.2" r="50.76" gradientTransform="translate(-965.66 3290.36) scale(0.91 0.81)" gradientUnits="userSpaceOnUse"><stop offset="0.1" stop-color="#fff"/><stop offset="0.6" stop-color="#7ebc47"/></radialGradient></defs><path class="cls-1" d="M24.25,64" transform="translate(0 0)"/><path class="cls-2" d="M50.81,32.37c.06,1.7-1.45,4.24-2.3,3.75-2.14-1.24-5.78.56-6.58-2.25-1.33-4.63-3.46-8.18-9.28-9.15-2.3-.39-2.48-2.92-4.19-4.66a8.79,8.79,0,0,0,1,6.7,13.67,13.67,0,0,0,3.3,3.54c9.85,7.75,10.91,19.44,2.54,29.24-.5-1.06-2.89-2.17-6.2-3.52,3-5.61,5.71-17.61,1.44-23.35-1-1.38-6.14-7.31-7.44-9.1a13.79,13.79,0,0,1-2.25-9.34c.4-4.44,2.41-9,6.58-11.29a12.3,12.3,0,0,1,6.37-1.57,19.82,19.82,0,0,1,7.33,2l.22.09c1.37.63,2.69,1.35,4,2.11L64,0,47.76,9.89c-.78,2.76-1.42,4.52-.76,7.05,1,3.9,2.19,7.75,3.22,11.64A16.9,16.9,0,0,1,50.81,32.37Z" transform="translate(0 0)"/><path class="cls-3" d="M33.26,1.39s-1.06.2-2.74.66C31.56,1.77,32.47,1.64,33.26,1.39Z" transform="translate(0 0)"/><path class="cls-4" d="M23.21,23.8c-4-5.42-3.11-15,2.24-19.17a13.5,13.5,0,0,1,4.73-2.49C24,3.87,10.55,8.89,8.73,20,6.35,34.47,34.86,38.78,28.06,57.73a12.86,12.86,0,0,0,1.15-1.82c3-5.55,5.71-17.43,1.43-23.11C29.62,31.44,24.51,25.57,23.21,23.8Z" transform="translate(0 0)"/><path class="cls-5" d="M8.73,20C10.55,8.89,24,3.87,30.18,2.14l.34-.09c1.68-.46,2.74-.66,2.74-.66A22.19,22.19,0,0,0,22,3,51.36,51.36,0,0,0,10.93,8.91a27.79,27.79,0,0,0-8,8.67,19.39,19.39,0,0,0-1.91,5A26.41,26.41,0,0,0,.8,36.1c4.32,15.41,25,17.73,27.26,21.63C34.86,38.78,6.35,34.47,8.73,20Z" transform="translate(0 0)"/><path class="cls-6" d="M8.73,20C10.55,8.89,24,3.87,30.18,2.14l.34-.09c1.68-.46,2.74-.66,2.74-.66a24.19,24.19,0,0,0-11,1.51C12.6,6.67,2.53,13.29.71,23.52A26.62,26.62,0,0,0,.8,36.1c4.32,15.41,25,17.73,27.26,21.63C34.86,38.78,6.35,34.47,8.73,20Z" transform="translate(0 0)"/></svg>